<svg width="21" height="21" viewBox="0 0 21 21" fill="none" xmlns="http://www.w3.org/2000/svg">
<path d="M10.5 13.125L14.4375 17.7188H6.5625L10.5 13.125Z" stroke="white" stroke-width="1.5" stroke-linecap="round" stroke-linejoin="round"/>
<path d="M5.25 15.75H3.9375C3.5894 15.75 3.25556 15.6117 3.00942 15.3656C2.76328 15.1194 2.625 14.7856 2.625 14.4375V5.25C2.625 4.9019 2.76328 4.56806 3.00942 4.32192C3.25556 4.07578 3.5894 3.9375 3.9375 3.9375H17.0625C17.4106 3.9375 17.7444 4.07578 17.9906 4.32192C18.2367 4.56806 18.375 4.9019 18.375 5.25V14.4375C18.375 14.7856 18.2367 15.1194 17.9906 15.3656C17.7444 15.6117 17.4106 15.75 17.0625 15.75H15.75" stroke="white" stroke-width="1.5" stroke-linecap="round" stroke-linejoin="round"/>
</svg>
