<svg width="21" height="21" viewBox="0 0 21 21" fill="none" xmlns="http://www.w3.org/2000/svg">
<path d="M7.21875 1.96875V4.59375" stroke="black" stroke-width="1.5" stroke-linecap="round" stroke-linejoin="round"/>
<path d="M9.84375 1.96875V4.59375" stroke="black" stroke-width="1.5" stroke-linecap="round" stroke-linejoin="round"/>
<path d="M12.4688 1.96875V4.59375" stroke="black" stroke-width="1.5" stroke-linecap="round" stroke-linejoin="round"/>
<path d="M2.625 17.7188H17.0625" stroke="black" stroke-width="1.5" stroke-linecap="round" stroke-linejoin="round"/>
<path d="M6.8332 17.7188C5.5772 17.1424 4.51301 16.2177 3.76705 15.0544C3.0211 13.8911 2.62472 12.5382 2.625 11.1562V7.21875H17.0625V11.1562C17.0628 12.5382 16.6664 13.8911 15.9204 15.0544C15.1745 16.2177 14.1103 17.1424 12.8543 17.7188" stroke="black" stroke-width="1.5" stroke-linecap="round" stroke-linejoin="round"/>
<path d="M17.0604 7.21875C17.7566 7.21875 18.4243 7.49531 18.9166 7.98759C19.4088 8.47988 19.6854 9.14756 19.6854 9.84375V10.5C19.6854 11.1962 19.4088 11.8639 18.9166 12.3562C18.4243 12.8484 17.7566 13.125 17.0604 13.125H16.7815" stroke="black" stroke-width="1.5" stroke-linecap="round" stroke-linejoin="round"/>
</svg>
