<svg width="22" height="22" viewBox="0 0 22 22" fill="none" xmlns="http://www.w3.org/2000/svg">
<g opacity="0.8">
<path d="M18.5625 18.5626V9.9259C18.561 9.83076 18.5404 9.73688 18.502 9.64981C18.4637 9.56273 18.4082 9.48421 18.3391 9.41887L11.4641 3.17122C11.3373 3.05527 11.1718 2.99097 11 2.99097C10.8282 2.99097 10.6627 3.05527 10.5359 3.17122L3.66094 9.41887C3.59176 9.48421 3.53635 9.56273 3.49797 9.64981C3.4596 9.73688 3.43904 9.83076 3.4375 9.9259V18.5626" stroke="white" stroke-width="2" stroke-linecap="round" stroke-linejoin="round"/>
<path d="M1.375 18.5625H20.625" stroke="white" stroke-width="2" stroke-linecap="round" stroke-linejoin="round"/>
<path d="M13.0625 18.5625V13.75C13.0625 13.5677 12.9901 13.3928 12.8611 13.2639C12.7322 13.1349 12.5573 13.0625 12.375 13.0625H9.625C9.44266 13.0625 9.2678 13.1349 9.13886 13.2639C9.00993 13.3928 8.9375 13.5677 8.9375 13.75V18.5625" stroke="white" stroke-width="2" stroke-linecap="round" stroke-linejoin="round"/>
</g>
</svg>
