<svg width="19" height="217" viewBox="0 0 19 217" fill="none" xmlns="http://www.w3.org/2000/svg">
<rect x="0.103363" y="0.113281" width="18.051" height="1.12177" fill="#393E48"/>
<rect x="0.103363" y="43.1143" width="18.051" height="1.12177" fill="#393E48"/>
<rect x="0.103363" y="8.71387" width="10.8306" height="1.12177" fill="#393E48"/>
<rect x="0.103363" y="17.314" width="10.8306" height="1.12177" fill="#393E48"/>
<rect x="0.103363" y="25.915" width="10.8306" height="1.12177" fill="#393E48"/>
<rect x="0.103363" y="34.5137" width="10.8306" height="1.12177" fill="#393E48"/>
<rect x="0.103363" y="86.1162" width="18.051" height="1.12177" fill="#393E48"/>
<rect x="0.103363" y="129.117" width="18.051" height="1.12177" fill="#393E48"/>
<rect x="0.103363" y="172.118" width="18.051" height="1.12177" fill="#393E48"/>
<rect x="0.103363" y="215.119" width="18.051" height="1.12177" fill="#393E48"/>
<rect x="0.103363" y="51.7148" width="10.8306" height="1.12177" fill="#393E48"/>
<rect x="0.103363" y="94.7158" width="10.8306" height="1.12177" fill="#393E48"/>
<rect x="0.103363" y="137.718" width="10.8306" height="1.12177" fill="#393E48"/>
<rect x="0.103363" y="180.719" width="10.8306" height="1.12177" fill="#393E48"/>
<rect x="0.103363" y="60.3149" width="10.8306" height="1.12177" fill="#393E48"/>
<rect x="0.103363" y="103.316" width="10.8306" height="1.12177" fill="#393E48"/>
<rect x="0.103363" y="146.318" width="10.8306" height="1.12177" fill="#393E48"/>
<rect x="0.103363" y="189.319" width="10.8306" height="1.12177" fill="#393E48"/>
<rect x="0.103363" y="68.916" width="10.8306" height="1.12177" fill="#393E48"/>
<rect x="0.103363" y="111.917" width="10.8306" height="1.12177" fill="#393E48"/>
<rect x="0.103363" y="154.918" width="10.8306" height="1.12177" fill="#393E48"/>
<rect x="0.103363" y="197.92" width="10.8306" height="1.12177" fill="#393E48"/>
<rect x="0.103363" y="77.5156" width="10.8306" height="1.12177" fill="#393E48"/>
<rect x="0.103363" y="120.517" width="10.8306" height="1.12177" fill="#393E48"/>
<rect x="0.103363" y="163.518" width="10.8306" height="1.12177" fill="#393E48"/>
<rect x="0.103363" y="206.52" width="10.8306" height="1.12177" fill="#393E48"/>
</svg>
