<svg width="19" height="217" viewBox="0 0 19 217" fill="none" xmlns="http://www.w3.org/2000/svg">
<rect width="18.051" height="1.12177" transform="matrix(-1 0 0 1 18.0509 0.113281)" fill="#393E48"/>
<rect width="18.051" height="1.12177" transform="matrix(-1 0 0 1 18.0509 43.1143)" fill="#393E48"/>
<rect width="10.8306" height="1.12177" transform="matrix(-1 0 0 1 18.0509 8.71387)" fill="#393E48"/>
<rect width="10.8306" height="1.12177" transform="matrix(-1 0 0 1 18.0509 17.314)" fill="#393E48"/>
<rect width="10.8306" height="1.12177" transform="matrix(-1 0 0 1 18.0509 25.915)" fill="#393E48"/>
<rect width="10.8306" height="1.12177" transform="matrix(-1 0 0 1 18.0509 34.5137)" fill="#393E48"/>
<rect width="18.051" height="1.12177" transform="matrix(-1 0 0 1 18.0509 86.1162)" fill="#393E48"/>
<rect width="18.051" height="1.12177" transform="matrix(-1 0 0 1 18.0509 129.117)" fill="#393E48"/>
<rect width="18.051" height="1.12177" transform="matrix(-1 0 0 1 18.0509 172.118)" fill="#393E48"/>
<rect width="18.051" height="1.12177" transform="matrix(-1 0 0 1 18.0509 215.119)" fill="#393E48"/>
<rect width="10.8306" height="1.12177" transform="matrix(-1 0 0 1 18.0509 51.7148)" fill="#393E48"/>
<rect width="10.8306" height="1.12177" transform="matrix(-1 0 0 1 18.0509 94.7158)" fill="#393E48"/>
<rect width="10.8306" height="1.12177" transform="matrix(-1 0 0 1 18.0509 137.718)" fill="#393E48"/>
<rect width="10.8306" height="1.12177" transform="matrix(-1 0 0 1 18.0509 180.719)" fill="#393E48"/>
<rect width="10.8306" height="1.12177" transform="matrix(-1 0 0 1 18.0509 60.3149)" fill="#393E48"/>
<rect width="10.8306" height="1.12177" transform="matrix(-1 0 0 1 18.0509 103.316)" fill="#393E48"/>
<rect width="10.8306" height="1.12177" transform="matrix(-1 0 0 1 18.0509 146.318)" fill="#393E48"/>
<rect width="10.8306" height="1.12177" transform="matrix(-1 0 0 1 18.0509 189.319)" fill="#393E48"/>
<rect width="10.8306" height="1.12177" transform="matrix(-1 0 0 1 18.0509 68.916)" fill="#393E48"/>
<rect width="10.8306" height="1.12177" transform="matrix(-1 0 0 1 18.0509 111.917)" fill="#393E48"/>
<rect width="10.8306" height="1.12177" transform="matrix(-1 0 0 1 18.0509 154.918)" fill="#393E48"/>
<rect width="10.8306" height="1.12177" transform="matrix(-1 0 0 1 18.0509 197.92)" fill="#393E48"/>
<rect width="10.8306" height="1.12177" transform="matrix(-1 0 0 1 18.0509 77.5156)" fill="#393E48"/>
<rect width="10.8306" height="1.12177" transform="matrix(-1 0 0 1 18.0509 120.517)" fill="#393E48"/>
<rect width="10.8306" height="1.12177" transform="matrix(-1 0 0 1 18.0509 163.518)" fill="#393E48"/>
<rect width="10.8306" height="1.12177" transform="matrix(-1 0 0 1 18.0509 206.52)" fill="#393E48"/>
</svg>
