<svg width="19" height="11" viewBox="0 0 19 11" fill="none" xmlns="http://www.w3.org/2000/svg">
<path opacity="0.4" d="M18.5001 1.87725L9.87792 10.4995C9.76684 10.6105 9.61619 10.6729 9.45911 10.6729C9.30203 10.6729 9.15138 10.6105 9.0403 10.4995L0.418078 1.87725C0.335171 1.79406 0.278866 1.68811 0.256319 1.57285C0.233772 1.45759 0.246 1.33822 0.291449 1.22993C0.3369 1.12164 0.413519 1.0293 0.511571 0.964653C0.609622 0.900007 0.72468 0.865972 0.842122 0.866871L18.0761 0.866874C18.1935 0.865975 18.3086 0.900011 18.4066 0.964657C18.5047 1.0293 18.5813 1.12164 18.6268 1.22993C18.6722 1.33823 18.6844 1.45759 18.6619 1.57285C18.6394 1.68811 18.583 1.79407 18.5001 1.87725Z" fill="black"/>
</svg>
