<svg width="21" height="21" viewBox="0 0 21 21" fill="none" xmlns="http://www.w3.org/2000/svg">
<g opacity="0.8">
<path d="M10.5 8.85938V17.7188" stroke="white" stroke-width="2" stroke-linecap="round" stroke-linejoin="round"/>
<path d="M10.5 3.28125V5.57812" stroke="white" stroke-width="2" stroke-linecap="round" stroke-linejoin="round"/>
<path d="M10.5 8.85938C11.4061 8.85938 12.1406 8.12484 12.1406 7.21875C12.1406 6.31266 11.4061 5.57812 10.5 5.57812C9.59391 5.57812 8.85938 6.31266 8.85938 7.21875C8.85938 8.12484 9.59391 8.85938 10.5 8.85938Z" stroke="white" stroke-width="2" stroke-linecap="round" stroke-linejoin="round"/>
<path d="M16.4062 15.4219V17.7188" stroke="white" stroke-width="2" stroke-linecap="round" stroke-linejoin="round"/>
<path d="M16.4062 3.28125V12.1406" stroke="white" stroke-width="2" stroke-linecap="round" stroke-linejoin="round"/>
<path d="M16.4062 15.4219C17.3123 15.4219 18.0469 14.6873 18.0469 13.7812C18.0469 12.8752 17.3123 12.1406 16.4062 12.1406C15.5002 12.1406 14.7656 12.8752 14.7656 13.7812C14.7656 14.6873 15.5002 15.4219 16.4062 15.4219Z" stroke="white" stroke-width="2" stroke-linecap="round" stroke-linejoin="round"/>
<path d="M4.59375 12.7969V17.7188" stroke="white" stroke-width="2" stroke-linecap="round" stroke-linejoin="round"/>
<path d="M4.59375 3.28125V9.51562" stroke="white" stroke-width="2" stroke-linecap="round" stroke-linejoin="round"/>
<path d="M4.59375 12.7969C5.49984 12.7969 6.23438 12.0623 6.23438 11.1562C6.23438 10.2502 5.49984 9.51562 4.59375 9.51562C3.68766 9.51562 2.95312 10.2502 2.95312 11.1562C2.95312 12.0623 3.68766 12.7969 4.59375 12.7969Z" stroke="white" stroke-width="2" stroke-linecap="round" stroke-linejoin="round"/>
</g>
</svg>
