<svg width="25" height="25" viewBox="0 0 25 25" fill="none" xmlns="http://www.w3.org/2000/svg">
<g opacity="0.5">
<path d="M17.207 9.73627H21.8945V5.04877" stroke="black" stroke-width="2" stroke-linecap="round" stroke-linejoin="round"/>
<path d="M6.42584 6.42574C7.2231 5.62732 8.16995 4.9939 9.21222 4.56174C10.2545 4.12957 11.3717 3.90712 12.5001 3.90712C13.6284 3.90712 14.7456 4.12957 15.7879 4.56174C16.8302 4.9939 17.777 5.62732 18.5743 6.42574L21.8946 9.73629" stroke="black" stroke-width="2" stroke-linecap="round" stroke-linejoin="round"/>
<path d="M7.79303 15.2637H3.10553V19.9512" stroke="black" stroke-width="2" stroke-linecap="round" stroke-linejoin="round"/>
<path d="M18.5743 18.5743C17.777 19.3727 16.8302 20.0061 15.7879 20.4383C14.7456 20.8705 13.6284 21.0929 12.5001 21.0929C11.3717 21.0929 10.2545 20.8705 9.21222 20.4383C8.16995 20.0061 7.2231 19.3727 6.42584 18.5743L3.10553 15.2637" stroke="black" stroke-width="2" stroke-linecap="round" stroke-linejoin="round"/>
</g>
</svg>
