<svg width="21" height="21" viewBox="0 0 21 21" fill="none" xmlns="http://www.w3.org/2000/svg">
<path d="M14.7656 3.28125H17.0625C17.2365 3.28125 17.4035 3.35039 17.5265 3.47346C17.6496 3.59653 17.7188 3.76345 17.7188 3.9375V6.23438" stroke="white" stroke-width="1.5" stroke-linecap="round" stroke-linejoin="round"/>
<path d="M14.7656 17.7188H17.0625C17.2365 17.7188 17.4035 17.6496 17.5265 17.5265C17.6496 17.4035 17.7188 17.2365 17.7188 17.0625V14.7656" stroke="white" stroke-width="1.5" stroke-linecap="round" stroke-linejoin="round"/>
<path d="M6.23438 17.7188H3.9375C3.76345 17.7188 3.59653 17.6496 3.47346 17.5265C3.35039 17.4035 3.28125 17.2365 3.28125 17.0625V14.7656" stroke="white" stroke-width="1.5" stroke-linecap="round" stroke-linejoin="round"/>
<path d="M6.23438 3.28125H3.9375C3.76345 3.28125 3.59653 3.35039 3.47346 3.47346C3.35039 3.59653 3.28125 3.76345 3.28125 3.9375V6.23438" stroke="white" stroke-width="1.5" stroke-linecap="round" stroke-linejoin="round"/>
<path d="M10.5 11.8125C11.9497 11.8125 13.125 10.6372 13.125 9.1875C13.125 7.73775 11.9497 6.5625 10.5 6.5625C9.05025 6.5625 7.875 7.73775 7.875 9.1875C7.875 10.6372 9.05025 11.8125 10.5 11.8125Z" stroke="white" stroke-width="1.5" stroke-linecap="round" stroke-linejoin="round"/>
<path d="M6.14429 14.4376C6.56379 13.6463 7.19093 12.9842 7.95836 12.5224C8.72578 12.0606 9.60451 11.8167 10.5001 11.8167C11.3958 11.8167 12.2745 12.0606 13.0419 12.5224C13.8094 12.9842 14.4365 13.6463 14.856 14.4376" stroke="white" stroke-width="1.5" stroke-linecap="round" stroke-linejoin="round"/>
</svg>
