<svg width="21" height="21" viewBox="0 0 21 21" fill="none" xmlns="http://www.w3.org/2000/svg">
<path d="M17.9561 5.82429C18.3866 6.82941 18.492 7.94399 18.2575 9.01197C18.0231 10.08 17.4605 11.0479 16.6485 11.7802C15.8366 12.5126 14.816 12.9727 13.7296 13.0962C12.6431 13.2197 11.5453 13.0003 10.5897 12.4688L5.98779 17.8009C5.61794 18.1707 5.11631 18.3785 4.59326 18.3785C4.07021 18.3785 3.56858 18.1707 3.19873 17.8009C2.82887 17.431 2.62109 16.9294 2.62109 16.4063C2.62109 15.8833 2.82887 15.3816 3.19873 15.0118L8.53076 10.4098C7.99927 9.45428 7.77991 8.35643 7.90338 7.27001C8.02685 6.18358 8.48697 5.16296 9.21933 4.35103C9.95169 3.53911 10.9196 2.97653 11.9876 2.74206C13.0556 2.50759 14.1702 2.61296 15.1753 3.04343L11.73 6.48054L12.1976 8.80202L14.519 9.2696L17.9561 5.82429Z" stroke="#555555" stroke-width="1.5" stroke-linecap="round" stroke-linejoin="round"/>
</svg>
