<svg width="21" height="21" viewBox="0 0 21 21" fill="none" xmlns="http://www.w3.org/2000/svg">
<path d="M12.4688 17.0623V13.1248C12.4688 12.9508 12.3996 12.7839 12.2765 12.6608C12.1535 12.5377 11.9865 12.4686 11.8125 12.4686H9.1875C9.01345 12.4686 8.84653 12.5377 8.72346 12.6608C8.60039 12.7839 8.53125 12.9508 8.53125 13.1248V17.0623C8.53125 17.2364 8.46211 17.4033 8.33904 17.5264C8.21597 17.6494 8.04905 17.7186 7.875 17.7186H3.9375C3.76345 17.7186 3.59653 17.6494 3.47346 17.5264C3.35039 17.4033 3.28125 17.2364 3.28125 17.0623V9.47445C3.28272 9.38363 3.30235 9.29402 3.33898 9.2109C3.3756 9.12778 3.42849 9.05283 3.49453 8.99047L10.057 3.02679C10.178 2.91612 10.336 2.85474 10.5 2.85474C10.664 2.85474 10.822 2.91612 10.943 3.02679L17.5055 8.99047C17.5715 9.05283 17.6244 9.12778 17.661 9.2109C17.6977 9.29402 17.7173 9.38363 17.7188 9.47445V17.0623C17.7188 17.2364 17.6496 17.4033 17.5265 17.5264C17.4035 17.6494 17.2365 17.7186 17.0625 17.7186H13.125C12.951 17.7186 12.784 17.6494 12.661 17.5264C12.5379 17.4033 12.4688 17.2364 12.4688 17.0623Z" stroke="black" stroke-width="1.5" stroke-linecap="round" stroke-linejoin="round"/>
</svg>
