<svg width="21" height="21" viewBox="0 0 21 21" fill="none" xmlns="http://www.w3.org/2000/svg">
<path d="M13.125 5.90625H7.875" stroke="black" stroke-width="1.5" stroke-linecap="round" stroke-linejoin="round"/>
<path d="M13.125 8.53125H7.875" stroke="black" stroke-width="1.5" stroke-linecap="round" stroke-linejoin="round"/>
<path d="M16.4062 17.7188V3.28125C16.4062 2.91881 16.1124 2.625 15.75 2.625L5.25 2.625C4.88756 2.625 4.59375 2.91881 4.59375 3.28125L4.59375 17.7188C4.59375 18.0812 4.88756 18.375 5.25 18.375H15.75C16.1124 18.375 16.4062 18.0812 16.4062 17.7188Z" stroke="black" stroke-width="1.5" stroke-linecap="round" stroke-linejoin="round"/>
<path d="M10.5 15.75C11.0437 15.75 11.4844 15.3093 11.4844 14.7656C11.4844 14.222 11.0437 13.7812 10.5 13.7812C9.95634 13.7812 9.51562 14.222 9.51562 14.7656C9.51562 15.3093 9.95634 15.75 10.5 15.75Z" fill="black"/>
</svg>
